<svg xmlns="http://www.w3.org/2000/svg" xmlns:xlink="http://www.w3.org/1999/xlink" fill="none" version="1.1" width="116" height="24" viewBox="0 0 116 24"><g><path d="M2.08,19.8Q1.8,19.8,1.56,19.7Q1.32,19.6,1.15,19.42Q0.98,19.24,0.92,18.99Q0.86,18.74,0.94,18.46L2.28,8.48L14.38,8.48L14.18,10.4L5.74,10.4L4.78,17.88L12.26,17.88L13.22,17.12L12.84,19.8L2.08,19.8ZM17.26,19.8Q16.98,19.8,16.74,19.7Q16.5,19.6,16.33,19.42Q16.16,19.24,16.1,18.99Q16.04,18.74,16.12,18.46L17.46,8.48L29.56,8.48L29.36,10.4L20.92,10.4L19.96,17.88L27.44,17.88L28.4,17.12L28.02,19.8L17.26,19.8ZM44.44,19.8Q44.16,19.8,43.92,19.7Q43.68,19.6,43.51,19.42Q43.34,19.24,43.28,18.99Q43.22,18.74,43.3,18.46L44.64,8.48L56.74,8.48L56.54,10.4L48.1,10.4L47.14,17.88L54.62,17.88L55.58,17.12L55.2,19.8L44.44,19.8ZM70.12,8.48L71.64,19.8L68.2,19.8L67.8,16.72L63,16.72L61.66,19.8L58.4,19.8L62.82,9.04L62.24,8.48L70.12,8.48ZM65.7,10.4L63.78,14.8L67.62,14.8L67.04,10.4L65.7,10.4ZM81.28,17.5L81.66,15.2L73.98,15.2L74.94,8.48L86.26,8.48L85.88,11.74L82.04,11.74L82.24,10.4L78.58,10.4L78,13.28L85.68,13.28L84.92,18.46Q84.92,18.74,84.79,18.99Q84.66,19.24,84.44,19.42Q84.22,19.6,83.95,19.7Q83.68,19.8,83.38,19.8L73.4,19.8L73.78,16.72L74.36,17.5L81.28,17.5ZM99.96,8.48L99.78,10.4L93.44,10.4L93.06,12.88L99,12.88L98.82,14.8L92.66,14.8L92.28,17.88L99,17.88L98.82,19.8L88.06,19.8L89.6,9.24L89.02,8.48L99.96,8.48Z" fill="#EEEEEE" fill-opacity="1"/></g></svg>