<svg xmlns="http://www.w3.org/2000/svg" xmlns:xlink="http://www.w3.org/1999/xlink" fill="none" version="1.1" width="118" height="185" viewBox="0 0 118 185"><defs><clipPath id="master_svg0_124_0657"><rect x="0" y="0" width="118" height="185" rx="0"/></clipPath><linearGradient x1="0.6351194381713867" y1="0.002520900685340166" x2="0.6351194381713867" y2="0.9990859031677246" id="master_svg1_55_4579"><stop offset="0%" stop-color="#131225" stop-opacity="1"/><stop offset="48.958298563957214%" stop-color="#171630" stop-opacity="1"/><stop offset="100%" stop-color="#121125" stop-opacity="1"/></linearGradient><linearGradient x1="0.000008490173968311865" y1="0.50080406665802" x2="0.6603553295135498" y2="0.50080406665802" id="master_svg2_55_4576"><stop offset="0%" stop-color="#1F1941" stop-opacity="1"/><stop offset="48.958298563957214%" stop-color="#171630" stop-opacity="1"/><stop offset="100%" stop-color="#121125" stop-opacity="1"/></linearGradient><linearGradient x1="7.117202281951904" y1="0.02820487879216671" x2="7.148107051849365" y2="0.9769238829612732" id="master_svg3_55_4570"><stop offset="0%" stop-color="#131328" stop-opacity="1"/><stop offset="49.42080080509186%" stop-color="#6049EE" stop-opacity="0.6700000166893005"/><stop offset="100%" stop-color="#16142B" stop-opacity="1"/></linearGradient><radialGradient cx="0" cy="0" r="1" gradientUnits="userSpaceOnUse" id="master_svg4_55_4567" gradientTransform="translate(210.5 59.000028133392334) rotate(90) scale(59 92.5)"><stop offset="0%" stop-color="#5E36FE" stop-opacity="1"/><stop offset="100%" stop-color="#11101F" stop-opacity="0"/></radialGradient></defs><g clip-path="url(#master_svg0_124_0657)"><g><path d="M24.1046142578125,92.6481L77.3978142578125,185L118.0000142578125,185L64.7097142578125,92.5L118.0000142578125,0L77.3978142578125,0L24.1046142578125,92.6481Z" fill="url(#master_svg1_55_4579)" fill-opacity="0.38999998569488525"/></g><g><path d="M50.74957275390625,92.6487L104.04297275390624,185L117.99997275390625,185L64.70967275390625,92.5L117.99997275390625,0.0000194012L104.04297275390624,0L50.74957275390625,92.6487Z" fill="url(#master_svg2_55_4576)" fill-opacity="1"/></g><g><path d="M117.04834658203126,0.0000149L117.99994658203124,0L64.70963658203125,92.5L117.99994658203124,185L117.04834658203126,185L63.44024658203125,92.5L117.04834658203126,0.0000149Z" fill="#0E0B21" fill-opacity="1"/></g><g><path d="M65.17496693359375,92.5000421875L118.02865693359375,1.3884151875000001L115.43365693359375,-0.11693081250000004L61.70673693359375,92.5000421875L115.43365693359375,185.1167421875L118.02865693359375,183.6117421875L65.17496693359375,92.5000421875Z" fill-rule="evenodd" fill="url(#master_svg3_55_4570)" fill-opacity="1"/></g><g transform="matrix(0,1,-1,0,118,-118)"><rect x="118" y="0" width="185" height="118" rx="4" fill="url(#master_svg4_55_4567)" fill-opacity="0.15000000596046448"/></g></g></svg>