<svg xmlns="http://www.w3.org/2000/svg" xmlns:xlink="http://www.w3.org/1999/xlink" fill="none" version="1.1" width="16" height="16" viewBox="0 0 16 16"><defs><clipPath id="master_svg0_52_710"><rect x="0" y="0" width="16" height="16" rx="0"/></clipPath></defs><g clip-path="url(#master_svg0_52_710)"><g><path d="M14.3625767578125,6.54990234375L8.3000667578125,2.21240234375C8.125066757812501,2.08740234375,7.8875667578125,2.08740234375,7.7250767578125,2.21240234375L1.6250717578125,6.54990234375C1.4250712578125,6.68740234375,1.5250712678125,6.99990234375,1.7750717578125,6.99990234375L3.0000667578125,6.99990234375L3.0000667578125,13.74995234375C3.0000667578125,13.88745234375,3.1125667578125,13.99995234375,3.2500667578125,13.99995234375L6.2500667578125,13.99995234375C6.3875667578125,13.99995234375,6.5000667578125,13.88745234375,6.5000667578125,13.74995234375L6.5000667578125,9.99990234375L9.500066757812501,9.99990234375L9.500066757812501,13.74995234375C9.500066757812501,13.88745234375,9.6125667578125,13.99995234375,9.7500667578125,13.99995234375L12.7500767578125,13.99995234375C12.8875767578125,13.99995234375,13.0000767578125,13.88745234375,13.0000767578125,13.74995234375L13.0000767578125,6.99990234375L14.2250767578125,6.99990234375C14.4625767578125,6.99990234375,14.5625767578125,6.68740234375,14.3625767578125,6.54990234375Z" fill="#DBDBDB" fill-opacity="1"/></g></g></svg>