<svg xmlns="http://www.w3.org/2000/svg" xmlns:xlink="http://www.w3.org/1999/xlink" fill="none" version="1.1" width="16" height="16" viewBox="0 0 16 16"><defs><clipPath id="master_svg0_55_899"><rect x="0" y="0" width="16" height="16" rx="0"/></clipPath></defs><g clip-path="url(#master_svg0_55_899)"><g><path d="M7.7155816015625,12.067513046875L7.7155816015625,11.143063046875C7.0898016015625,11.071953046874999,6.4213606015625,10.801733046875,5.9520321015625,10.417733046875L5.8951416015625,10.375063046874999L6.3502516015625,9.791953046875001L6.4071416015625005,9.834623046875C6.9333616015625,10.247073046875,7.4595916015625,10.446173046875,8.000031601562501,10.446173046875C8.7538116015625,10.446173046875,9.1662516015625,10.119063046874999,9.1662516015625,9.507493046875C9.1662516015625,8.782173046875,8.4978016015625,8.483493046875001,7.8009216015625,8.170603046875C7.0044716015625,7.815063046875,6.1938136015625,7.445283046875,6.1938136015625,6.449713046875C6.1938136015625,5.639043046875,6.8053606015625,5.013263046875,7.7155916015625,4.871045046875L7.7155916015625,3.932373046875L8.4409216015625,3.932373046875L8.4409216015625,4.856826046875C9.1520316015625,4.942153046875,9.5929216015625,5.269283046875,9.8915916015625,5.567933046875L9.9484816015625,5.624823046875L9.4364816015625,6.136823046875L9.3938116015625,6.094153046875C9.0098116015625,5.752823046875,8.6969216015625,5.582153046875,8.1280316015625,5.582153046875C7.5164816015625,5.582153046875,7.1040316015625,5.923483046875,7.1040316015625,6.449703046874999C7.1040316015625,7.047033046875001,7.6871416015625,7.303033046875,8.3555816015625,7.5874830468750005C9.1662516015625,7.943033046875,10.0906916015625,8.327033046875,10.0906916015625,9.493263046875C10.0906916015625,10.389263046875,9.4649116015625,11.015043046875,8.4551416015625,11.157263046875L8.4551416015625,12.095933046875L7.7155916015625,12.095933046875L7.7155816015625,12.067513046875Z" fill="#DBDBDB" fill-opacity="1"/></g><g><path d="M7.9999899609375,15.40993203125C3.9182099609375,15.40993203125,0.5902099609375,12.08193203125,0.5902099609375,8.00011203125C0.5902099609375,3.91833203125,3.9182099609375,0.59033203125,7.9999899609375,0.59033203125C12.0818099609375,0.59033203125,15.4098099609375,3.91833203125,15.4098099609375,8.00011203125C15.4098099609375,12.08193203125,12.0818099609375,15.40993203125,7.9999899609375,15.40993203125ZM7.9999899609375,1.34411303125C4.3306599609375,1.34411303125,1.3439909609375,4.33078203125,1.3439909609375,8.00011203125C1.3439909609375,11.66943203125,4.3306599609375,14.65613203125,7.9999899609375,14.65613203125C11.6693099609375,14.65613203125,14.6560099609375,11.66943203125,14.6560099609375,8.00011203125C14.6560099609375,4.33078203125,11.6693099609375,1.34411303125,7.9999899609375,1.34411303125Z" fill="#DBDBDB" fill-opacity="1"/></g><g><path d="M8.0000340234375,14.07304609375C7.7867040234375,14.07304609375,7.6160340234375,13.90234609375,7.6160340234375,13.68904609375C7.6160340234375,13.47564609375,7.7867040234375,13.30504609375,8.0000340234375,13.30504609375C10.9155740234375,13.30504609375,13.2907240234375,10.92990609375,13.2907240234375,8.01433609375C13.2907240234375,7.20366609375,13.1058240234375,6.42144609375,12.7502240234375,5.696126093749999C12.7076240234375,5.59657609375,12.6933240234375,5.49701609375,12.7360240234375,5.39744609375C12.7645240234375,5.29790609375,12.8356240234375,5.22677609375,12.9351240234375,5.16990609375C12.9920240234375,5.14144609375,13.0489240234375,5.12723609375,13.1058240234375,5.12723609375C13.2622240234375,5.12723609375,13.3902240234375,5.21255609375,13.4471240234375,5.34055609375C13.8596240234375,6.17966609375,14.0587240234375,7.06144609375,14.0587240234375,8.00010609375C14.0729240234375,11.34232609375,11.3422340234375,14.07304609375,8.0000340234375,14.07304609375ZM11.9680240234375,4.31657609375C11.8684840234375,4.31657609375,11.7689240234375,4.27390609375,11.6978140234375,4.20279609375C10.7022640234375,3.23568609375,9.3938140234375,2.69524609375,8.0000340234375,2.69524609375C7.7867040234375,2.69524609375,7.6160340234375,2.52457409375,7.6160340234375,2.31124609375C7.6160340234375,2.09791809375,7.7867040234375,1.92724609375,8.0000340234375,1.92724609375C9.5929240234375,1.92724609375,11.1004840234375,2.53879309375,12.2382240234375,3.64813609375C12.3093240234375,3.71924609375,12.3520240234375,3.81880609375,12.3520240234375,3.91835609375C12.3520240234375,4.01790609375,12.3093240234375,4.11746609375,12.2382240234375,4.18857609375C12.1671240234375,4.27390609375,12.0676240234375,4.31657609375,11.9680240234375,4.31657609375ZM5.7955740234375,13.61794609375C5.7386840234375,13.61794609375,5.6960340234375,13.60364609375,5.6391240234375,13.58944609375C3.3920140234375,12.63654609375,1.9271240234375,10.44633609375,1.9271240234375,8.00012609375C1.9271240234375,5.63923609375,3.3209040234375,3.46322609375,5.4684540234375,2.4819030937499997C5.5253440234374995,2.45345009375,5.5679940234375,2.45345009375,5.6249040234375,2.45345009375C5.781354023437499,2.45345009375,5.9093540234374995,2.53877809375,5.9804540234375,2.68099709375C6.0657840234375,2.8801060937500003,5.9804540234375,3.10766609375,5.7955640234375,3.1929960937499997C3.9182340234375,4.04632609375,2.7093420234375,5.93788609375,2.7093420234375,8.00010609375C2.7093420234375,10.13343609375,3.9751240234375,12.05344609375,5.9520140234375,12.87834609375C6.0515640234375,12.92104609375,6.1226840234375,12.99214609375,6.1653440234375,13.09164609375C6.2080140234375,13.19124609375,6.2080140234375,13.29074609375,6.1653440234375,13.39034609375C6.0800140234375,13.53254609375,5.9520140234375,13.61784609375,5.7955740234375,13.61794609375L5.7955740234375,13.61794609375Z" fill="#DBDBDB" fill-opacity="1"/></g></g></svg>