<svg xmlns="http://www.w3.org/2000/svg" xmlns:xlink="http://www.w3.org/1999/xlink" fill="none" version="1.1" width="16" height="16" viewBox="0 0 16 16"><defs><clipPath id="master_svg0_52_718"><rect x="0" y="0" width="16" height="16" rx="0"/></clipPath></defs><g clip-path="url(#master_svg0_52_718)"><g><path d="M8.3725127734375,6.098995546875L7.9999327734375,4.285275546875L7.6554827734375,6.094765546875C7.2800927734375,6.162245546875,6.9201727734375,6.340795546875,6.6291227734375,6.630435546875C5.8727227734375,7.388265546875,5.8727227734375,8.614265546875,6.6291227734375,9.370665546875C7.3855427734375,10.127075546875,8.612952773437499,10.127075546875,9.3693627734375,9.370665546875C10.1271827734375,8.612845546875,10.1271827734375,7.386845546875,9.3693627734375,6.630435546875C9.0867627734375,6.347845546875,8.7380727734375,6.169295546875,8.3725127734375,6.098995546875ZM12.3752927734375,12.375235546875L9.6196127734375,9.619545546875C9.3243627734375,9.914795546875,8.9686427734375,10.111625546875,8.5932527734375,10.212855546875L9.6027327734375,13.979435546875C9.0867527734375,14.117235546875,8.5482527734375,14.187535546875,7.9999327734375,14.187535546875C7.4516227734375,14.187535546875,6.9145327734375,14.115835546875,6.3985427734375,13.979435546875L7.4080327734375,10.212855546875C7.0312327734375,10.113025546875,6.6769227734375,9.914805546875,6.3816727734375,9.619545546875L3.6259627734375,12.375235546875C2.8301827734375,11.579435546875,2.2959227734375,10.617795546875,2.0259827734374998,9.601275546875L5.7897627734375,8.593205546875C5.6857327734375,8.204975546875,5.6857327734375,7.796195546875,5.7897627734375,7.407965546875L2.0259827734374998,6.399885546875C2.2959227734375,5.383375546875,2.8287927734375,4.4216855468750005,3.6245727734375,3.625915546875L6.3802827734375,6.381625546875C6.6755327734375,6.086375546875,7.0298427734375,5.889545546875,7.4066427734375,5.788315546875L6.3985627734375,2.021715546875C6.9145427734375,1.885342546875,7.4516227734375,1.813639546875,7.9999527734375,1.813639546875C8.5482827734375,1.813639546875,9.0853527734375,1.885342546875,9.6027527734375,2.021715546875L8.5932627734375,5.788305546875C8.968652773437501,5.888135546875,9.3243727734375,6.086355546875,9.6196227734375,6.381625546875L12.3752927734375,3.625915546875C13.1556927734375,4.406245546875001,13.7025927734375,5.359485546875,13.9794927734375,6.398485546875L10.2115427734375,7.407965546875C10.3155727734375,7.796195546875,10.3155727734375,8.204975546875,10.2115427734375,8.593205546875L13.9780927734375,9.602685546875C13.7011927734375,10.641685546875,13.1555927734375,11.594935546875,12.3752927734375,12.375235546875ZM12.9713927734375,3.029775546875C11.6427927734375,1.702544546875,9.8782927734375,0.971435546875,7.9999327734375,0.971435546875C6.1229527734375,0.971435546875,4.357072773437499,1.702544546875,3.0298427734375,3.029775546875C1.7012017734375,4.357015546875,0.9700927734375,6.122915546875,0.9700927734375,7.999875546875C0.9700927734375,9.878245546875,1.7012017734375,11.642735546875,3.0298427734375,12.971335546875C4.357072773437499,14.300035546875,6.1229827734375,15.029735546875,7.9999327734375,15.029735546875C9.8783127734375,15.029735546875,11.6427927734375,14.298635546875,12.9713927734375,12.971335546875C14.3000927734375,11.644135546875,15.0297927734375,9.878235546875,15.0297927734375,7.999875546875C15.0297927734375,6.122885546875,14.2986927734375,4.357015546875,12.9713927734375,3.029775546875Z" fill="#DBDBDB" fill-opacity="1"/></g></g></svg>