<svg xmlns="http://www.w3.org/2000/svg" xmlns:xlink="http://www.w3.org/1999/xlink" fill="none" version="1.1" width="18" height="18" viewBox="0 0 18 18"><defs><clipPath id="master_svg0_80_2612"><rect x="0" y="0" width="18" height="18" rx="0"/></clipPath></defs><g clip-path="url(#master_svg0_80_2612)"><g><path d="M16.0989125,8.9806903125Q16.0989125,9.1559603125,16.0903125,9.331030312500001Q16.081712500000002,9.5060903125,16.064612500000003,9.6805203125Q16.0474125,9.8549503125,16.0217125,10.0283303125Q15.9959125,10.2017003125,15.9617125,10.3736103125Q15.9275125,10.5455203125,15.8850125,10.7155403125Q15.8424125,10.8855603125,15.7915125,11.0532803125Q15.7406125,11.2210103125,15.6816125,11.3860403125Q15.6225125,11.5510703125,15.5554125,11.7130003125Q15.4884125,11.8749203125,15.4134125,12.0334203125Q15.3385125,12.1918203125,15.2559125,12.3464203125Q15.1732125,12.5010203125,15.0831125,12.6513203125Q14.9930125,12.8016203125,14.8956125,12.9474203125Q14.7982125,13.0931203125,14.6938125,13.2339203125Q14.5894125,13.3747203125,14.4782125,13.5102203125Q14.3670125,13.6456203125,14.2493125,13.7755203125Q14.1316125,13.9054203125,14.0077125,14.0293203125Q13.8837125,14.1533203125,13.7539125,14.2710203125Q13.6240125,14.3887203125,13.4885125,14.4999203125Q13.3530125,14.6111203125,13.2122125,14.7155203125Q13.0714125,14.8199203125,12.9257125,14.9173203125Q12.7800125,15.0146203125,12.6296125,15.1047203125Q12.4793125,15.1948203125,12.3247125,15.2775203125Q12.1701125,15.3601203125,12.0117125,15.4350203125Q11.8532125,15.5100203125,11.6913125,15.5770203125Q11.5293725,15.6441203125,11.3643425,15.7032203125Q11.1993125,15.7622203125,11.0315825,15.8131203125Q10.8638525,15.8640203125,10.6938325,15.9066203125Q10.5238025,15.9492203125,10.3518925,15.9833203125Q10.1799825,16.0175203125,10.0066025,16.0433203125Q9.8332225,16.0690203125,9.6587925,16.0862203125Q9.4843625,16.1033203125,9.3092925,16.1119203125Q9.1342225,16.1205203125,8.958952499999999,16.1205203125Q8.7836725,16.1205203125,8.6086025,16.1119203125Q8.4335425,16.1033203125,8.2591125,16.0862203125Q8.0846725,16.0690203125,7.9112925,16.0433203125Q7.7379125,16.0175203125,7.5660025,15.9833203125Q7.3940925,15.9492203125,7.2240725,15.9066203125Q7.0540425,15.8640203125,6.8863125,15.8131203125Q6.7185825,15.7622203125,6.5535525,15.7032203125Q6.3885225,15.6441203125,6.2265925,15.5770203125Q6.0646525,15.5100203125,5.9062025,15.4350203125Q5.7477625,15.3601203125,5.5931825,15.2775203125Q5.4385925,15.1948203125,5.2882525000000005,15.1047203125Q5.1379125000000005,15.0146203125,4.9921825,14.9173203125Q4.8464425,14.8199203125,4.705652499999999,14.7155203125Q4.5648725,14.6111203125,4.4293825,14.4999203125Q4.2938925,14.3887203125,4.1640225,14.2710203125Q4.034152499999999,14.1533203125,3.9102125,14.0293203125Q3.7862725,13.9054203125,3.6685625,13.7755203125Q3.5508525,13.6456203125,3.4396525000000002,13.5102203125Q3.3284625,13.3747203125,3.2240525,13.2339203125Q3.1196325,13.0931203125,3.0222625,12.9474203125Q2.9248825,12.8016203125,2.8347724999999997,12.6513203125Q2.7446585,12.5010203125,2.6620335,12.3464203125Q2.5794085,12.1918203125,2.5044675,12.0334203125Q2.4295265,11.8749203125,2.3624515,11.7130003125Q2.2953755,11.5510703125,2.2363265,11.3860403125Q2.1772774999999998,11.2210103125,2.1263975,11.0532803125Q2.0755165,10.8855603125,2.0329275,10.7155403125Q1.9903395,10.5455203125,1.9561445,10.3736103125Q1.9219495,10.2017003125,1.8962308,10.0283303125Q1.8705123,9.8549503125,1.8533322,9.6805203125Q1.836152,9.5060903125,1.82755158,9.331030312500001Q1.81895114,9.1559603125,1.81895114,8.9806903125Q1.81895114,8.8054203125,1.82755158,8.6303503125Q1.836152,8.4552903125,1.8533322,8.2808603125Q1.8705123,8.106430312499999,1.8962308,7.9330503125Q1.9219495,7.7596803125,1.9561445,7.5877703125Q1.9903395,7.4158603125,2.0329275,7.2458403125Q2.0755165,7.0758203125,2.1263975,6.9081003125Q2.1772774999999998,6.7403703125,2.2363265,6.5753403125Q2.2953755,6.4103103125,2.3624515,6.2483803125Q2.4295265,6.0864503125,2.5044675,5.9280003125Q2.5794085,5.7695603124999995,2.6620335,5.6149803125Q2.7446585,5.4604003125,2.8347724999999997,5.3100603125Q2.9248825,5.1597303125,3.0222625,5.0139903125Q3.1196325,4.8682603125,3.2240525,4.7274703124999995Q3.3284625,4.5866903125,3.4396525000000002,4.4512003125Q3.5508525,4.3157203125,3.6685625,4.1858503124999995Q3.7862725,4.0559803125,3.9102125,3.9320403125Q4.034152499999999,3.8081003124999997,4.1640225,3.6904003125Q4.2938925,3.5726903125,4.4293825,3.4615003125Q4.5648725,3.3503003125,4.705652499999999,3.2458903125000003Q4.8464425,3.1414803124999997,4.9921825,3.0441003125Q5.1379125000000005,2.9467303124999997,5.2882525000000005,2.8566203125Q5.4385925,2.7665103125,5.5931825,2.6838873125Q5.7477625,2.6012633125,5.9062025,2.5263243125Q6.0646525,2.4513853125000002,6.2265925,2.3843103125000003Q6.3885225,2.3172363125,6.5535525,2.2581883125Q6.7185925,2.1991403125,6.8863225,2.1482603125Q7.0540525,2.0973813125,7.2240725,2.0547933125Q7.3940925,2.0122053125,7.5660025,1.9780113125Q7.7379125,1.9438163125,7.9112925,1.9180986125Q8.0846725,1.8923806125,8.2591125,1.8752007125Q8.4335425,1.8580209125,8.6086025,1.8494205925Q8.7836725,1.8408203125,8.958952499999999,1.8408203125Q9.1342225,1.8408203125,9.3092925,1.8494205925Q9.4843625,1.8580209125,9.6587925,1.8752007125Q9.8332225,1.8923806125,10.0066025,1.9180986125Q10.1799825,1.9438163125,10.3518925,1.9780113125Q10.5238025,2.0122053125,10.6938325,2.0547933125Q10.8638525,2.0973813125,11.0315825,2.1482603125Q11.1993125,2.1991403125,11.3643425,2.2581883125Q11.5293725,2.3172363125,11.6913125,2.3843103125000003Q11.8532125,2.4513853125000002,12.0117125,2.5263243125Q12.1701125,2.6012633125,12.3247125,2.6838873125Q12.4793125,2.7665103125,12.6296125,2.8566203125Q12.7800125,2.9467303124999997,12.9257125,3.0441003125Q13.0714125,3.1414803124999997,13.2122125,3.2458903125000003Q13.3530125,3.3503003125,13.4885125,3.4615003125Q13.6240125,3.5726903125,13.7539125,3.6904003125Q13.8837125,3.8081003124999997,14.0077125,3.9320403125Q14.1316125,4.0559803125,14.2493125,4.1858503124999995Q14.3670125,4.3157203125,14.4782125,4.4512003125Q14.5894125,4.5866903125,14.6938125,4.7274703124999995Q14.7982125,4.8682603125,14.8956125,5.0139903125Q14.9930125,5.1597303125,15.0831125,5.3100603125Q15.1732125,5.4604003125,15.2559125,5.6149803125Q15.3385125,5.7695603124999995,15.4134125,5.9280003125Q15.4884125,6.0864503125,15.5554125,6.2483803125Q15.6225125,6.4103103125,15.6816125,6.5753403125Q15.7406125,6.7403703125,15.7915125,6.9081003125Q15.8424125,7.0758203125,15.8850125,7.2458403125Q15.9275125,7.4158603125,15.9617125,7.5877703125Q15.9959125,7.7596803125,16.0217125,7.9330503125Q16.0474125,8.106430312499999,16.064612500000003,8.2808603125Q16.081712500000002,8.4552903125,16.0903125,8.6303503125Q16.0989125,8.8054203125,16.0989125,8.9806903125Z" fill="#FFC962" fill-opacity="1"/></g><g><path d="M13.397835625,3.375C16.486515625,5.829549999999999,17.018315625,10.309090000000001,14.563715625,13.3977C12.109195625,16.4864,7.629655625,17.0182,4.541015625,14.5636" fill="#FDDB81" fill-opacity="1"/></g><g><path d="M14.094587109375,9.184413671875Q14.094587109375,9.315023671875,14.088187109375,9.445473671875Q14.081787109375,9.575923671875,14.068987109375,9.705903671875Q14.056187109375,9.835883671875,14.036987109375,9.965073671875Q14.017887109375,10.094273671875001,13.992387109375,10.222373671875001Q13.966887109375,10.350463671875,13.935187109375,10.477163671875001Q13.903387109375,10.603853671875001,13.865487109375,10.728843671875001Q13.827587109375,10.853823671875,13.783587109375,10.976803671875Q13.739587109375,11.099773671874999,13.689687109375,11.220443671875Q13.639687109375,11.341103671875,13.583887109375,11.459173671875Q13.527987109375,11.577243671875,13.466487109375,11.692433671875001Q13.404897109375,11.807613671875,13.337757109375,11.919643671875Q13.270617109375,12.031673671875,13.198067109375,12.140263671875Q13.125517109375,12.248863671875,13.047727109375,12.353763671875Q12.969937109375,12.458673671875,12.887087109375,12.559633671875Q12.804247109375,12.660603671875,12.716547109375,12.757373671875Q12.628847109375,12.854143671875,12.536507109375,12.946503671875Q12.444167109375,13.038853671875,12.347407109375,13.126563671875Q12.250647109375,13.214283671875,12.149697109375,13.297133671875Q12.048747109375,13.379993671875,11.943857109375,13.457793671875Q11.838967109375,13.535603671875,11.730387109375,13.608163671875Q11.621807109375,13.680723671875,11.509797109375,13.747873671875Q11.397787109374999,13.815013671875,11.282617109375,13.876613671875Q11.167447109375,13.938113671875,11.049397109375,13.994013671875Q10.931347109375,14.049813671875,10.810697109374999,14.099813671875Q10.690047109375,14.149813671875,10.567097109375,14.193813671875Q10.444137109375,14.237813671875,10.319177109375001,14.275713671875Q10.194207109375,14.313613671875,10.067527109375,14.345413671875Q9.940857109375,14.377113671875,9.812777109375,14.402613671875Q9.684697109375,14.428013671875,9.555517109375,14.447213671875Q9.426347109375001,14.466413671875,9.296387109375,14.479213671875Q9.166427109375,14.492013671875,9.035987109375,14.498413671875Q8.905557109375,14.504813671875,8.774967109375,14.504813671875Q8.644377109375,14.504813671875,8.513947109375,14.498413671875Q8.383517109375,14.492013671875,8.253557109375,14.479213671875Q8.123597109375,14.466413671875,7.994417109375,14.447213671875Q7.865247109375,14.428013671875,7.737167109375,14.402613671875Q7.609087109375,14.377113671875,7.482407109375,14.345413671875Q7.355737109375,14.313613671875,7.230767109375,14.275713671875Q7.1057971093750005,14.237813671875,6.982847109375,14.193813671875Q6.859887109375,14.149813671875,6.739237109375,14.099813671875Q6.618597109375,14.049813671875,6.500537109375,13.994013671875Q6.382487109375,13.938113671875,6.267317109375,13.876613671875Q6.152147109375,13.815013671875,6.040137109374999,13.747873671875Q5.928127109375,13.680723671875,5.819547109375,13.608163671875Q5.710967109375,13.535603671875,5.606077109375001,13.457793671875Q5.5011871093749996,13.379993671875,5.400237109375,13.297133671875Q5.299297109375,13.214283671875,5.202537109375,13.126563671875Q5.1057771093749995,13.038853671875,5.013437109375,12.946503671875Q4.921097109375,12.854143671875,4.8333971093749994,12.757373671875Q4.745697109375,12.660603671875,4.662847109375,12.559633671875Q4.580007109375,12.458673671875,4.502217109375,12.353763671875Q4.424423109375,12.248863671875,4.351871109375,12.140263671875Q4.279320109375,12.031673671875,4.212183109375,11.919643671875Q4.145047109375,11.807613671875,4.083488109375,11.692433671875001Q4.021928109375,11.577243671875,3.9660941093749997,11.459173671875Q3.910260109375,11.341103671875,3.860286109375,11.220443671875Q3.810311109375,11.099773671874999,3.766317109375,10.976803671875Q3.722323109375,10.853823671875,3.684415109375,10.728843671875001Q3.646507109375,10.603853671875001,3.614776109375,10.477163671875001Q3.583046109375,10.350463671875,3.557569109375,10.222373671875001Q3.532092509375,10.094273671875001,3.512931109375,9.965073671875Q3.493769709375,9.835883671875,3.480969709375,9.705903671875Q3.468169709375,9.575923671875,3.461761979375,9.445473671875Q3.455354269375,9.315023671875,3.455354269375,9.184413671875Q3.455354269375,9.053803671875,3.461761979375,8.923353671874999Q3.468169709375,8.792903671874999,3.480969709375,8.662923671875Q3.493769709375,8.532943671875,3.512931109375,8.403743671874999Q3.532092509375,8.274553671875001,3.557569109375,8.146453671875001Q3.583046109375,8.018353671875001,3.614776109375,7.891663671875Q3.646507109375,7.764963671875,3.684415109375,7.639983671875Q3.722323109375,7.514993671875001,3.766317109375,7.392023671875Q3.810312109375,7.269053671875,3.860286109375,7.148383671875Q3.910260109375,7.027713671875,3.9660941093749997,6.909643671875Q4.021928109375,6.791583671874999,4.083488109375,6.676393671875Q4.145047109375,6.561203671875,4.212183109375,6.449183671875Q4.279320109375,6.337153671875,4.351871109375,6.228553671875Q4.424423109375,6.119963671875,4.502217109375,6.015053671875Q4.580007109375,5.910143671875,4.662847109375,5.809183671875Q4.745697109375,5.708223671875,4.8333971093749994,5.611453671875Q4.921097109375,5.514673671875,5.013437109375,5.4223236718750005Q5.1057771093749995,5.329963671875,5.202537109375,5.242253671875Q5.299297109375,5.154543671875,5.400237109375,5.071683671875Q5.5011871093749996,4.988833671875,5.606077109375001,4.911023671875Q5.710967109375,4.833224671875,5.819547109375,4.760662671875Q5.928127109375,4.6881006718750005,6.040137109374999,4.620953671875Q6.152147109375,4.553807671875,6.267317109375,4.492239671875Q6.382487109375,4.430670671875,6.500537109375,4.374828671875Q6.618597109375,4.318986671875,6.739237109375,4.269004671875Q6.859887109375,4.219022671875,6.982847109375,4.175022671875Q7.1057971093750005,4.131021671875,7.230767109375,4.093108671875Q7.355737109375,4.055194671875,7.482407109375,4.023459671875Q7.609087109375,3.991723671875,7.737167109375,3.966243671875Q7.865247109375,3.940763171875,7.994417109375,3.921598971875Q8.123597109375,3.902434671875,8.253557109375,3.889632871875Q8.383517109375,3.876830971875,8.513947109375,3.870422321875Q8.644377109375,3.864013671875,8.774967109375,3.864013671875Q8.905557109375,3.864013671875,9.035987109375,3.870422321875Q9.166427109375,3.876830971875,9.296387109375,3.889632871875Q9.426347109375001,3.902434671875,9.555517109375,3.921598971875Q9.684697109375,3.940763171875,9.812777109375,3.966243671875Q9.940857109375,3.991723671875,10.067527109375,4.023459671875Q10.194207109375,4.055194671875,10.319177109375001,4.093108671875Q10.444137109375,4.131021671875,10.567097109375,4.175022671875Q10.690047109375,4.219022671875,10.810697109374999,4.269004671875Q10.931347109375,4.318986671875,11.049397109375,4.374828671875Q11.167447109375,4.430670671875,11.282617109375,4.492239671875Q11.397787109374999,4.553807671875,11.509797109375,4.620953671875Q11.621807109375,4.6881006718750005,11.730387109375,4.760662671875Q11.838967109375,4.833224671875,11.943857109375,4.911023671875Q12.048747109375,4.988833671875,12.149697109375,5.071683671875Q12.250647109375,5.154543671875,12.347407109375,5.242253671875Q12.444167109375,5.329963671875,12.536507109375,5.4223236718750005Q12.628847109375,5.514673671875,12.716547109375,5.611453671875Q12.804247109375,5.708223671875,12.887087109375,5.809183671875Q12.969937109375,5.910143671875,13.047727109375,6.015053671875Q13.125517109375,6.119963671875,13.198067109375,6.228553671875Q13.270617109375,6.337153671875,13.337757109375,6.449183671875Q13.404897109375,6.561203671875,13.466487109375,6.676393671875Q13.527987109375,6.791583671874999,13.583887109375,6.909643671875Q13.639687109375,7.027713671875,13.689687109375,7.148383671875Q13.739587109375,7.269053671875,13.783587109375,7.392023671875Q13.827587109375,7.514993671875001,13.865487109375,7.639983671875Q13.903387109375,7.764963671875,13.935187109375,7.891663671875Q13.966887109375,8.018353671875001,13.992387109375,8.146453671875001Q14.017887109375,8.274553671875001,14.036987109375,8.403743671874999Q14.056187109375,8.532943671875,14.068987109375,8.662923671875Q14.081787109375,8.792903671874999,14.088187109375,8.923353671874999Q14.094587109375,9.053803671875,14.094587109375,9.184413671875Z" fill="#FEFF89" fill-opacity="1"/></g><g><path d="M14.60446640625,8.877164375Q14.60446640625,9.013244375,14.59776640625,9.149154375Q14.59106640625,9.285074375,14.57776640625,9.420494375Q14.56436640625,9.555914375,14.54446640625,9.690524374999999Q14.52446640625,9.825124375,14.49796640625,9.958584375000001Q14.47136640625,10.092054375,14.43826640625,10.224044375Q14.40526640625,10.356044375,14.36576640625,10.486264375000001Q14.32626640625,10.616484374999999,14.28036640625,10.744604375Q14.23456640625,10.872734375,14.18246640625,10.998454375Q14.13036640625,11.124164375,14.07226640625,11.247184375Q14.01406640625,11.370194375,13.94986640625,11.490204375Q13.88576640625,11.610214375,13.81576640625,11.726934375Q13.74586640625,11.843644375,13.67026640625,11.956794375Q13.59466640625,12.069934375,13.51357640625,12.179234375Q13.43250640625,12.288534375,13.34618640625,12.393724375Q13.25985640625,12.498914375,13.16847640625,12.599734375Q13.07708640625,12.700564375,12.98086640625,12.796784375Q12.88464640625,12.893004375,12.78381640625,12.984394375Q12.68299640625,13.075774375,12.57780640625,13.162104375Q12.47261640625,13.248434375,12.36331640625,13.329494375Q12.25401640625,13.410584375,12.14087640625,13.486184375Q12.02772640625,13.561784375,11.91101640625,13.631684375Q11.79429640625,13.701684375,11.67428640625,13.765784375Q11.55427640625,13.829984375,11.43126640625,13.888184375Q11.30824640625,13.946284375,11.18253640625,13.998384375Q11.05681640625,14.050484375,10.92868640625,14.096284375Q10.800566406249999,14.142184375,10.670346406250001,14.181684375Q10.54012640625,14.221184375,10.40813640625,14.254184375Q10.27613640625,14.287284375,10.142666406250001,14.313884375Q10.00920640625,14.340384375,9.874606406249999,14.360384375Q9.73999640625,14.380284375,9.60457640625,14.393684375Q9.46915640625,14.406984375,9.33323640625,14.413684375Q9.19732640625,14.420384375,9.06124640625,14.420384375Q8.92516640625,14.420384375,8.78925640625,14.413684375Q8.65334640625,14.406984375,8.51792640625,14.393684375Q8.382496406249999,14.380284375,8.24789640625,14.360384375Q8.113286406250001,14.340384375,7.97982640625,14.313884375Q7.84636640625,14.287284375,7.71436640625,14.254184375Q7.58236640625,14.221184375,7.45214640625,14.181684375Q7.32192640625,14.142184375,7.193806406249999,14.096284375Q7.06568640625,14.050484375,6.93996640625,13.998384375Q6.81424640625,13.946284375,6.69123640625,13.888184375Q6.56821640625,13.829984375,6.44820640625,13.765784375Q6.32819640625,13.701684375,6.21148640625,13.631684375Q6.094766406250001,13.561784375,5.98161640625,13.486184375Q5.86847640625,13.410584375,5.75917640625,13.329494375Q5.64987640625,13.248434375,5.544686406249999,13.162104375Q5.43949640625,13.075774375,5.33867640625,12.984394375Q5.23784640625,12.893004375,5.1416264062499994,12.796784375Q5.04540640625,12.700564375,4.95401640625,12.599734375Q4.86263640625,12.498914375,4.77630640625,12.393724375Q4.68998640625,12.288534375,4.60892640625,12.179234375Q4.52785640625,12.069934375,4.45226040625,11.956794375Q4.37666040625,11.843644375,4.30670240625,11.726934375Q4.23674440625,11.610214375,4.17259840625,11.490204375Q4.10845140625,11.370194375,4.05027040625,11.247184375Q3.99209040625,11.124164375,3.94001540625,10.998454375Q3.88794140625,10.872734375,3.84209840625,10.744604375Q3.79625440625,10.616484374999999,3.75675340625,10.486264375000001Q3.71725240625,10.356044375,3.68418840625,10.224054375Q3.65112440625,10.092054375,3.62457640625,9.958584375000001Q3.5980294062500002,9.825124375,3.57806270625,9.690524374999999Q3.55809600625,9.555914375,3.54475810625,9.420494375Q3.53142010625,9.285074375,3.52474314625,9.149154375Q3.518066138029,9.013244375,3.518066138029,8.877164375Q3.518066138029,8.741084375,3.52474314625,8.605174375Q3.53142010625,8.469264375,3.54475810625,8.333844375Q3.55809600625,8.198414374999999,3.57806270625,8.063814375Q3.5980294062500002,7.929204375,3.62457640625,7.795744375Q3.65112440625,7.662284375,3.68418840625,7.530284375Q3.71725240625,7.398284375,3.75675340625,7.268064375Q3.7962554062500002,7.137844375,3.84209840625,7.009724374999999Q3.88794140625,6.881604375,3.94001540625,6.755884375Q3.99209040625,6.630164375,4.05027140625,6.507154375Q4.10845140625,6.384134375,4.17259840625,6.264124375Q4.23674440625,6.144114375,4.30670240625,6.027404375Q4.37666040625,5.910684375000001,4.45226040625,5.797534375Q4.52785640625,5.684394375,4.60892640625,5.575094375Q4.68998640625,5.465794375,4.77630640625,5.360604374999999Q4.86263640625,5.2554243750000005,4.95401640625,5.154594375Q5.04540640625,5.053764375,5.1416264062499994,4.9575443749999994Q5.23784640625,4.861324375,5.33867640625,4.769944375Q5.43949640625,4.678554375,5.544686406249999,4.592224375Q5.64987640625,4.505904375,5.75917640625,4.424844375Q5.86847640625,4.343784375,5.98161640625,4.268179375Q6.094766406250001,4.192578375,6.21148640625,4.122620375Q6.32819640625,4.052662375,6.44820640625,3.988516375Q6.56821640625,3.924369375,6.69123640625,3.8661893750000003Q6.81424640625,3.808008375,6.93996640625,3.755934375Q7.06568640625,3.703859375,7.193806406249999,3.658016375Q7.32192640625,3.6121733750000002,7.45214640625,3.572672375Q7.58236640625,3.533170375,7.71436640625,3.500106375Q7.84636640625,3.467042375,7.97982640625,3.440495375Q8.113286406250001,3.413947675,8.24789640625,3.393980975Q8.382496406249999,3.374014275,8.51792640625,3.360676275Q8.65334640625,3.347338375,8.78925640625,3.340661375Q8.92516640625,3.333984375,9.06124640625,3.333984375Q9.19732640625,3.333984375,9.33323640625,3.340661375Q9.46915640625,3.347338375,9.60457640625,3.360676275Q9.73999640625,3.374014275,9.87459640625,3.393980975Q10.00920640625,3.413947675,10.142666406250001,3.440495375Q10.27612640625,3.467042375,10.40812640625,3.500106375Q10.54012640625,3.533170375,10.670346406250001,3.572672375Q10.800566406249999,3.6121733750000002,10.92868640625,3.658016375Q11.05681640625,3.703859375,11.18253640625,3.755934375Q11.30824640625,3.808008375,11.43126640625,3.8661893750000003Q11.55427640625,3.924369375,11.67428640625,3.988516375Q11.79429640625,4.052662375,11.91101640625,4.122620375Q12.02772640625,4.192578375,12.14087640625,4.268179375Q12.25401640625,4.343784375,12.36331640625,4.424844375Q12.47261640625,4.505904375,12.57780640625,4.592224375Q12.68299640625,4.678554375,12.78381640625,4.769944375Q12.88464640625,4.861324375,12.98086640625,4.9575443749999994Q13.07708640625,5.053764375,13.16847640625,5.154594375Q13.25985640625,5.2554243750000005,13.34618640625,5.360604374999999Q13.43250640625,5.465794375,13.51357640625,5.575094375Q13.59466640625,5.684394375,13.67026640625,5.797534375Q13.74586640625,5.910684375000001,13.81576640625,6.027404375Q13.88576640625,6.144114375,13.94986640625,6.264124375Q14.01406640625,6.384134375,14.07226640625,6.507154375Q14.13036640625,6.630164375,14.18246640625,6.755884375Q14.23456640625,6.881604375,14.28036640625,7.009724374999999Q14.32626640625,7.137844375,14.36576640625,7.268064375Q14.40526640625,7.398284375,14.43826640625,7.530284375Q14.47136640625,7.662284375,14.49796640625,7.795744375Q14.52446640625,7.929204375,14.54446640625,8.063814375Q14.56436640625,8.198414374999999,14.57776640625,8.333844375Q14.59106640625,8.469264375,14.59776640625,8.605174375Q14.60446640625,8.741084375,14.60446640625,8.877164375Z" fill="#D77E00" fill-opacity="1"/></g><g><path d="M14.13535859375,9.1241675Q14.13535859375,9.2547575,14.12895859375,9.385177500000001Q14.12255859375,9.5156075,14.10975859375,9.6455675Q14.09695859375,9.775527499999999,14.07775859375,9.904697500000001Q14.05865859375,10.0338675,14.03315859375,10.1619475Q14.00765859375,10.2900275,13.97595859375,10.4166975Q13.94415859375,10.543367499999999,13.90625859375,10.6683275Q13.86835859375,10.793297500000001,13.82435859375,10.9162475Q13.78035859375,11.0391975,13.73045859375,11.1598475Q13.68045859375,11.2804875,13.62465859375,11.3985375Q13.56875859375,11.5165875,13.50725859375,11.6317475Q13.44565859375,11.7469175,13.37852859375,11.8589275Q13.31138859375,11.9709375,13.23883859375,12.0795075Q13.16628859375,12.1880875,13.08849859375,12.2929775Q13.01069859375,12.3978675,12.92785859375,12.4988075Q12.84501859375,12.5997575,12.75731859375,12.6965075Q12.66961859375,12.7932675,12.57727859375,12.8856075Q12.48493859375,12.9779475,12.38817859375,13.0656375Q12.29141859375,13.1533375,12.19046859375,13.2361775Q12.08951859375,13.3190275,11.98462859375,13.3968175Q11.87973859375,13.4746075,11.77115859375,13.5471575Q11.66257859375,13.6196975,11.55056859375,13.6868375Q11.438558593749999,13.7539675,11.32338859375,13.8154875Q11.20821859375,13.8770875,11.09016859375,13.9328875Q10.97211859375,13.9887875,10.851468593749999,14.0386875Q10.73081859375,14.0886875,10.60786859375,14.1326875Q10.48490859375,14.1766875,10.35993859375,14.2145875Q10.23497859375,14.2524875,10.10829859375,14.2841875Q9.98162859375,14.3159875,9.85354859375,14.3413875Q9.72546859375,14.3668875,9.59628859375,14.3860875Q9.467118593750001,14.4051875,9.33715859375,14.4179875Q9.20718859375,14.4307875,9.07675859375,14.4372875Q8.94632859375,14.4436875,8.81573859375,14.4436875Q8.68514859375,14.4436875,8.55471859375,14.4372875Q8.42428859375,14.4307875,8.29432859375,14.4179875Q8.16436859375,14.4051875,8.03518859375,14.3860875Q7.90601859375,14.3668875,7.77793859375,14.3413875Q7.64985859375,14.3159875,7.52317859375,14.2841875Q7.39650859375,14.2524875,7.27153859375,14.2145875Q7.1465685937500005,14.1766875,7.02361859375,14.1326875Q6.90065859375,14.0886875,6.78000859375,14.0386875Q6.6593585937499995,13.9887875,6.54130859375,13.9328875Q6.42325859375,13.8770875,6.30808859375,13.8154875Q6.19291859375,13.7539675,6.080908593749999,13.6868375Q5.96889859375,13.6196975,5.86031859375,13.5471575Q5.75173859375,13.4746075,5.646848593750001,13.3968175Q5.5419585937499996,13.3190275,5.44100859375,13.2361775Q5.34006859375,13.1533375,5.24330859375,13.0656375Q5.1465485937499995,12.9779475,5.05420859375,12.8856075Q4.96185859375,12.7932675,4.8741685937499994,12.6965075Q4.78646859375,12.5997575,4.70361859375,12.4988075Q4.62077859375,12.3978675,4.54298859375,12.2929775Q4.46519259375,12.1880875,4.39264159375,12.0795075Q4.32008959375,11.9709375,4.25295359375,11.8589275Q4.18581759375,11.7469175,4.12425859375,11.6317475Q4.0626985937499995,11.5165875,4.0068645937500005,11.3985375Q3.95103059375,11.2804875,3.90105659375,11.1598475Q3.85108159375,11.0391975,3.80708759375,10.9162475Q3.76309359375,10.793297500000001,3.72518559375,10.6683275Q3.68727759375,10.543367499999999,3.65554659375,10.4166975Q3.62381659375,10.2900275,3.59833959375,10.1619475Q3.57286289375,10.0338675,3.55370149375,9.904697500000001Q3.53454009375,9.775527499999999,3.52174009375,9.6455675Q3.50894009375,9.5156075,3.50253239375,9.385177500000001Q3.49612468375,9.2547575,3.49612468375,9.1241675Q3.49612468375,8.9935775,3.50253239375,8.8631575Q3.50894009375,8.7327275,3.52174009375,8.602767499999999Q3.53454009375,8.4728075,3.55370149375,8.3436375Q3.57286289375,8.2144675,3.59833959375,8.0863875Q3.62381659375,7.9583075,3.65554659375,7.8316375Q3.68727759375,7.7049675,3.72518559375,7.5800075Q3.76309359375,7.4550374999999995,3.80708759375,7.3320875Q3.85108159375,7.209137500000001,3.90105659375,7.088487499999999Q3.95103059375,6.9678474999999995,4.0068645937500005,6.8497975Q4.0626985937499995,6.7317475,4.12425859375,6.6165775Q4.18581759375,6.5014175000000005,4.25295359375,6.3894075Q4.32008959375,6.2773975,4.39264159375,6.1688275Q4.46519259375,6.0602475,4.54298859375,5.9553575Q4.62077859375,5.850467500000001,4.70361859375,5.7495275Q4.78646859375,5.6485775,4.8741685937499994,5.5518275Q4.96185859375,5.4550675,5.05420859375,5.3627275Q5.1465485937499995,5.2703875,5.24330859375,5.1826975Q5.34006859375,5.0949975,5.44100859375,5.0121575Q5.5419585937499996,4.9293075,5.646848593750001,4.8515175Q5.75173859375,4.7737315,5.86031859375,4.7011815Q5.96889859375,4.6286315,6.080908593749999,4.5614975Q6.19291859375,4.4943625,6.30808859375,4.4328055Q6.42325859375,4.3712475,6.54130859375,4.3154145Q6.6593585937499995,4.2595815,6.78000859375,4.2096085Q6.90065859375,4.1596355,7.02361859375,4.1156425Q7.1465685937500005,4.0716495,7.27153859375,4.0337425Q7.39650859375,3.9958355,7.52317859375,3.9641055Q7.64985859375,3.9323755,7.77793859375,3.9068995Q7.90601859375,3.8814238,8.03518859375,3.8622628Q8.16436859375,3.8431019,8.29432859375,3.8303022Q8.42428859375,3.8175026,8.55471859375,3.81109505Q8.68514859375,3.8046875,8.81573859375,3.8046875Q8.94632859375,3.8046875,9.07675859375,3.81109505Q9.20718859375,3.8175026,9.33715859375,3.8303022Q9.467118593750001,3.8431019,9.59628859375,3.8622628Q9.72546859375,3.8814238,9.85354859375,3.9068995Q9.98162859375,3.9323755,10.10829859375,3.9641055Q10.23497859375,3.9958355,10.35993859375,4.0337425Q10.48490859375,4.0716495,10.60786859375,4.1156425Q10.73081859375,4.1596355,10.851468593749999,4.2096085Q10.97211859375,4.2595815,11.09016859375,4.3154145Q11.20821859375,4.3712475,11.32338859375,4.4328045Q11.438558593749999,4.4943625,11.55056859375,4.5614975Q11.66257859375,4.6286315,11.77115859375,4.7011815Q11.87973859375,4.7737315,11.98462859375,4.8515175Q12.08951859375,4.9293075,12.19046859375,5.0121575Q12.29141859375,5.0949975,12.38817859375,5.1826975Q12.48493859375,5.2703875,12.57727859375,5.3627275Q12.66961859375,5.4550675,12.75731859375,5.5518275Q12.84501859375,5.6485775,12.92785859375,5.7495275Q13.01070859375,5.850467500000001,13.08849859375,5.9553575Q13.16628859375,6.0602475,13.23883859375,6.1688275Q13.31138859375,6.2773975,13.37852859375,6.3894075Q13.44565859375,6.5014175000000005,13.50725859375,6.6165775Q13.56875859375,6.7317475,13.62465859375,6.8497975Q13.68045859375,6.9678474999999995,13.73045859375,7.088487499999999Q13.78035859375,7.209137500000001,13.82435859375,7.3320875Q13.86835859375,7.4550374999999995,13.90625859375,7.5800075Q13.94415859375,7.7049675,13.97595859375,7.8316375Q14.00765859375,7.9583075,14.03315859375,8.0863875Q14.05865859375,8.2144675,14.07775859375,8.3436375Q14.09695859375,8.4728075,14.10975859375,8.602767499999999Q14.12255859375,8.7327275,14.12895859375,8.8631575Q14.13535859375,8.9935775,14.13535859375,9.1241675Z" fill="#F19400" fill-opacity="1"/></g><g><path d="M12.231966484375,5.05224609375C14.481966484375,6.93406609375,14.768326484375,10.288606093750001,12.886506484375001,12.538606093750001C11.004696484375,14.78860609375,7.650146484375,15.07494609375,5.400146484375,13.19315609375" fill="#F2A100" fill-opacity="1"/></g><g><path d="M10.472818671875,8.79546796875C10.472818671875,8.81591796875,10.472818671875,8.81591796875,10.472818671875,8.79546796875C10.472818671875,8.81591796875,10.472818671875,8.81591796875,10.472818671875,8.79546796875ZM10.493278671875,8.81591796875C10.493278671875,8.83636796875,10.493278671875,8.83636796875,10.493278671875,8.81591796875C10.493278671875,8.83636796875,10.493278671875,8.83636796875,10.493278671875,8.81591796875ZM9.368278671875,9.42955796875L10.493278671875,9.30682796875L9.368278671875,9.42955796875ZM9.327368671875,9.42955796875C9.347818671875,9.42955796875,9.347818671875,9.42955796875,9.327368671875,9.42955796875C9.347818671875,9.42955796875,9.347818671875,9.42955796875,9.327368671875,9.42955796875ZM9.368278671875,6.81136796875L10.084188671875,6.87273796875L10.186458671875,6.87273796875L10.186458671875,5.52273606875C10.186458671875,5.48182706875,10.145548671875,5.44091796875,10.104638671875,5.44091796875L7.711456771875,5.70682696875C7.670547771875,5.70682696875,7.629638671875,5.74773596875,7.629638671875,5.80909896875L7.629638671875,6.6272779687500005L7.854638671875,6.60682796875C7.916001671875,6.60682796875,7.956910671875,6.6272779687500005,7.956910671875,6.68864796875L7.956910671875,7.81364796875L9.286458671875,7.79318796875L9.286458671875,6.87273796875C9.286458671875,6.85227796875,9.327368671875,6.81136796875,9.368278671875,6.81136796875Z" fill="#D36500" fill-opacity="1"/></g><g><path d="M10.083984375,6.89301309375L10.186257375,6.89301309375L10.083984375,6.87255859375L10.083984375,6.89301309375Z" fill="#D36500" fill-opacity="1"/></g><g><path d="M10.1862703125,7.73199140625L10.1862703125,6.89335040625L10.1044603125,6.89335040625L9.3885503125,6.83198640625C9.3476403125,6.83198640625,9.306730312500001,6.87289540625,9.306730312500001,6.91380440625L9.306730312500001,7.8342614062500004L10.124910312499999,7.8138014062500005C10.1453603125,7.8138014062500005,10.1862703125,7.77289140625,10.1862703125,7.73199140625ZM7.9567303124999995,7.22062340625L7.9567303124999995,6.70925950625C7.9567303124999995,6.66835050625,7.9158203125,6.62744140625,7.8544603125000005,6.62744140625L7.6294603125,6.64789590625L6.4430933125,6.70925950625C6.3817294125,6.70925950625,6.3408203125,6.75016840625,6.3408203125,6.8115324062500004L6.3408203125,8.713801406249999C6.3408203125,8.77517140625,6.3817294125,8.81608140625,6.4226384125,8.81608140625L7.8544603125000005,8.97971140625C7.8953703125,9.00017140625,7.9362703125,8.95926140625,7.9362703125,8.91835140625L7.9362703125,7.22062340625L7.9567303124999995,7.22062340625Z" fill="#D36500" fill-opacity="1"/></g><g><path d="M9.572819687500001,11.31124640625L8.3864526875,11.16806640625C8.3250887875,11.16806640625,8.2841796875,11.229426406249999,8.2841796875,11.27033640625L8.2841796875,12.43624640625C8.2841796875,12.47715640625,8.3046341875,12.51806640625,8.3455432875,12.51806640625L9.5114496875,12.84533640625C9.5932696875,12.86579640625,9.6341796875,12.80442640625,9.6341796875,12.76351640625L9.6341796875,11.41351640625C9.6546296875,11.35215640625,9.6137296875,11.31124640625,9.572819687500001,11.31124640625ZM11.3523596875,6.99533940625L10.1864496875,6.89306640625L10.125089687500001,6.89306640625L10.1659996875,6.89306640625L10.1659996875,7.73170340625C10.1659996875,7.77261240625,10.125089687500001,7.8135214062500005,10.0841796875,7.8135214062500005L9.2659966875,7.8339754062499996L9.2659966875,8.79533640625L10.4114496875,8.79533640625C10.4319096875,8.79533640625,10.4523596875,8.79533640625,10.4728196875,8.81579640625L10.4728196875,9.32715640625L11.3114496875,9.22488640625C11.3523596875,9.22488640625,11.3932696875,9.18397640625,11.3932696875,9.12261640625L11.3932696875,7.11806640625C11.4341796875,7.05670240625,11.3932696875,7.01579340625,11.3523596875,6.99533940625Z" fill="#DA7B01" fill-opacity="1"/></g><g><path d="M9.3683055625,9.429691484375L9.3478515625,9.429691484375L9.3273965625,9.429691484375C9.2864875625,9.409237484375,9.2660335625,9.388782484375,9.2660335625,9.347873484375L9.2660335625,8.775146484375L8.7751245625,8.775146484375C8.7137606625,8.775146484375,8.6728515625,8.816055584375,8.6728515625,8.856964584375L8.6728515625,10.841056484375C8.6728515625,10.902416484375,8.7342151625,10.922876484375,8.7546696625,10.922876484375L10.4114915625,10.595606484375C10.4524015625,10.575146484375,10.4933015625,10.534236484375,10.4933015625,10.493326484375L10.4933015625,9.327420484375L9.3683055625,9.429691484375Z" fill="#DA7B01" fill-opacity="1"/></g><g><path d="M9.368278671875,8.979793125L10.493278671875,8.857063125L9.368278671875,8.979793125ZM9.327368671875,8.959343125C9.347818671875,8.959343125,9.347818671875,8.959343125,9.327368671875,8.959343125C9.347818671875,8.959343125,9.347818671875,8.959343125,9.327368671875,8.959343125ZM9.572818671875,10.841163125L8.386457671875,10.718433125C8.325093671875,10.718433125,8.284184671875,10.779793125000001,8.284184671875,10.820703125L8.284184671875,11.986613125C8.284184671875,12.027523125,8.304638671875,12.068433125,8.345547671875,12.068433125L9.511458671875,12.395703125C9.593278671875,12.416163125,9.634188671875,12.354793125,9.634188671875,12.313883125L9.634188671875,10.963883124999999C9.654638671875,10.902523125,9.613728671875,10.841163125,9.572818671875,10.841163125ZM9.368278671875,6.361613125L10.084188671875,6.422973125L10.186458671875,6.422973125L10.186458671875,5.052521225C10.186458671875,5.011612225,10.145548671875,4.970703125,10.104638671875,4.970703125L7.711456771875,5.236612125C7.670547771875,5.236612125,7.629638671875,5.277521125,7.629638671875,5.338884125L7.629638671875,6.1570631250000005L7.854638671875,6.136613125C7.916001671875,6.136613125,7.956910671875,6.1570631250000005,7.956910671875,6.218433125L7.956910671875,7.384343125L9.286458671875,7.363883125L9.286458671875,6.443433125C9.286458671875,6.382063125,9.327368671875,6.361613125,9.368278671875,6.361613125Z" fill="#F7D27B" fill-opacity="1"/></g><g><path d="M11.352229140624999,6.5455795625L10.186324140625,6.4433066625L10.124960140625,6.4433066625L10.165869140625,6.4433066625L10.165869140625,7.2819435625C10.165869140625,7.3228525625,10.124960140625,7.3637615625,10.084051140625,7.3637615625L9.265869140625,7.3842155625L9.265869140625,8.3455815625L10.411319140625,8.3455815625C10.431779140625,8.3455815625,10.452229140625,8.3455815625,10.472689140625,8.3660315625L10.472689140625,8.8774015625L11.311319140625,8.7751215625C11.352229140624999,8.7751215625,11.393139140625,8.7342115625,11.393139140625,8.6728515625L11.393139140625,6.6683075625C11.434049140625,6.5864895625,11.393139140625,6.5455805625,11.352229140624999,6.5455795625ZM10.084051140625,6.4228515625L10.186324140625,6.4228515625L10.084051140625,6.4228515625Z" fill="#F7D27B" fill-opacity="1"/></g><g><path d="M10.1864915625,7.261328125L10.1864915625,6.422691725L10.1046715625,6.422691725L9.3887605625,6.361328125C9.3478515625,6.361328125,9.3069425625,6.402237225,9.3069425625,6.443146225L9.3069425625,7.363598125L10.1251215625,7.343146125C10.1455815625,7.343146125,10.1864915625,7.3022371249999996,10.1864915625,7.261328125ZM9.3683055625,8.979508125L9.3478515625,8.979508125L9.3273965625,8.979508125C9.2864875625,8.959058125,9.2660335625,8.938598125,9.2660335625,8.897688125L9.2660335625,8.324968125L8.7751245625,8.324968125C8.7137606625,8.324968125,8.6728515625,8.365878125,8.6728515625,8.406778125L8.6728515625,10.390868125C8.6728515625,10.452238125000001,8.7342151625,10.472688125000001,8.7546696625,10.472688125000001L10.4114915625,10.145418124999999C10.4524015625,10.124968125,10.4933015625,10.084058125,10.4933015625,10.043148125L10.4933015625,8.877238125L9.3683055625,8.979508125Z" fill="#F7D27B" fill-opacity="1"/></g><g><path d="M10.4930903125,8.38628828125C10.4930903125,8.36582828125,10.4930903125,8.36582828125,10.4930903125,8.38628828125L10.472640312500001,8.36582828125C10.452180312500001,8.34537828125,10.431730312500001,8.34537828125,10.411270312500001,8.34537828125L9.2658203125,8.34537828125L9.2658203125,8.91809828125C9.2658203125,8.93855828125,9.286270312500001,8.97946828125,9.3271803125,8.99991828125L9.3680903125,8.99991828125L10.5135503125,8.87718828125L10.5135503125,8.44764828125C10.5135503125,8.40673828125,10.5135503125,8.38628828125,10.4930903125,8.38628828125ZM7.9567303124999995,6.74992028125L7.9567303124999995,6.23855638125C7.9567303124999995,6.19764738125,7.9158203125,6.15673828125,7.8544603125000005,6.15673828125L7.6294603125,6.17719278125L6.4430933125,6.23855638125C6.3817294125,6.23855638125,6.3408203125,6.27946528125,6.3408203125,6.3408292812500004L6.3408203125,8.243098281249999C6.3408203125,8.30446828125,6.3817294125,8.34537828125,6.4226384125,8.34537828125L7.8544603125000005,8.50900828125C7.8953703125,8.52946828125,7.9362703125,8.48855828125,7.9362703125,8.44764828125L7.9362703125,6.74992028125L7.9567303124999995,6.74992028125Z" fill="#F7D27B" fill-opacity="1"/></g></g></svg>